<?xml version="1.0" standalone="no"?>
<svg xmlns:xlink="http://www.w3.org/1999/xlink" id="wave" style="transform:rotate(180deg); transition: 0.3s" viewBox="0 0 1440 490" version="1.1" xmlns="http://www.w3.org/2000/svg"><defs><linearGradient id="sw-gradient-0" x1="0" x2="0" y1="1" y2="0"><stop stop-color="rgba(243, 106, 62, 1)" offset="0%"/><stop stop-color="rgba(255, 179, 11, 1)" offset="100%"/></linearGradient></defs><path style="transform:translate(0, 0px); opacity:1" fill="url(#sw-gradient-0)" d="M0,49L26.7,98C53.3,147,107,245,160,269.5C213.3,294,267,245,320,212.3C373.3,180,427,163,480,147C533.3,131,587,114,640,138.8C693.3,163,747,229,800,253.2C853.3,278,907,261,960,220.5C1013.3,180,1067,114,1120,89.8C1173.3,65,1227,82,1280,138.8C1333.3,196,1387,294,1440,318.5C1493.3,343,1547,294,1600,294C1653.3,294,1707,343,1760,367.5C1813.3,392,1867,392,1920,326.7C1973.3,261,2027,131,2080,65.3C2133.3,0,2187,0,2240,49C2293.3,98,2347,196,2400,228.7C2453.3,261,2507,229,2560,228.7C2613.3,229,2667,261,2720,261.3C2773.3,261,2827,229,2880,179.7C2933.3,131,2987,65,3040,98C3093.3,131,3147,261,3200,302.2C3253.3,343,3307,294,3360,245C3413.3,196,3467,147,3520,106.2C3573.3,65,3627,33,3680,89.8C3733.3,147,3787,294,3813,367.5L3840,441L3840,490L3813.3,490C3786.7,490,3733,490,3680,490C3626.7,490,3573,490,3520,490C3466.7,490,3413,490,3360,490C3306.7,490,3253,490,3200,490C3146.7,490,3093,490,3040,490C2986.7,490,2933,490,2880,490C2826.7,490,2773,490,2720,490C2666.7,490,2613,490,2560,490C2506.7,490,2453,490,2400,490C2346.7,490,2293,490,2240,490C2186.7,490,2133,490,2080,490C2026.7,490,1973,490,1920,490C1866.7,490,1813,490,1760,490C1706.7,490,1653,490,1600,490C1546.7,490,1493,490,1440,490C1386.7,490,1333,490,1280,490C1226.7,490,1173,490,1120,490C1066.7,490,1013,490,960,490C906.7,490,853,490,800,490C746.7,490,693,490,640,490C586.7,490,533,490,480,490C426.7,490,373,490,320,490C266.7,490,213,490,160,490C106.7,490,53,490,27,490L0,490Z"/></svg>